<?xml version="1.0" encoding="utf-8"?>
<svg xmlns="http://www.w3.org/2000/svg" style="margin: auto; background: none; display: block; shape-rendering: auto;" width="267" height="270" preserveAspectRatio="xMidYMid">
<style type="text/css">
  text {
    text-anchor: middle; font-size: 133px; opacity: 0;
  }
</style>
<g style="transform-origin: 133.5px 135px; transform: scale(1.6625);">
<g transform="translate(133.5,135)">
  <g transform="translate(0,0)"><g class="path" style="transform: matrix(1, 0, 0, 1, 0, 0); transform-origin: -61.68px -10.2829px; animation: 1s linear -0.55s infinite normal forwards running bounce-b2f9df74-c404-4ae3-999e-00896c59517a;"><path d="M4.64-59.92L15.60-61.92L14.56-20.80L15.44-2L4.64 0L5.60-19.44L4.64-59.92" fill="#ffffff" stroke="none" stroke-width="none" transform="translate(-71.79998779296875,20.6770654296875)" style="fill: rgb(255, 255, 255);"></path></g><g class="path" style="transform: matrix(1, 0, 0, 1, 0, 0); transform-origin: -41.6px 0.317064px; animation: 1s linear -0.44s infinite normal forwards running bounce-b2f9df74-c404-4ae3-999e-00896c59517a;"><path d="M24.88-38.72L35.60-40.72L34.64-20.80L35.52-2L24.80 0L25.76-19.44L24.88-38.72" fill="#ffffff" stroke="none" stroke-width="none" transform="translate(-71.79998779296875,20.6770654296875)" style="fill: rgb(255, 255, 255);"></path></g><g class="path" style="transform: matrix(1, 0, 0, 1, 0, 0); transform-origin: -41.24px -32.1229px; animation: 1s linear -0.33s infinite normal forwards running bounce-b2f9df74-c404-4ae3-999e-00896c59517a;"><path d="M24.32-52.44L24.32-52.44L24.32-52.44Q24.32-55.12 26.40-57.24L26.40-57.24L26.40-57.24Q28.48-59.36 31.20-59.36L31.20-59.36L31.20-59.36Q33.92-59.36 35.36-57.88L35.36-57.88L35.36-57.88Q36.80-56.40 36.80-53.44L36.80-53.44L36.80-53.44Q36.80-50.48 34.76-48.36L34.76-48.36L34.76-48.36Q32.72-46.24 30.04-46.24L30.04-46.24L30.04-46.24Q27.36-46.24 25.84-48L25.84-48L25.84-48Q24.32-49.76 24.32-52.44" fill="#ffffff" stroke="none" stroke-width="none" transform="translate(-71.79998779296875,20.6770654296875)" style="fill: rgb(255, 255, 255);"></path></g><g class="path" style="transform: matrix(1, 0, 0, 1, 0, 0); transform-origin: -11.32px 0.517065px; animation: 1s linear -0.22s infinite normal forwards running bounce-b2f9df74-c404-4ae3-999e-00896c59517a;"><path d="M67.60-20.24L67.60-20.24Q67.60-25.76 66.64-27.60L66.64-27.60L66.64-27.60Q65.68-29.44 62.16-29.44L62.16-29.44L62.16-29.44Q58.64-29.44 54.16-26.64L54.16-26.64L54.16-20.80L55.04-2L44.32 0L45.28-19.44L45.28-19.44Q44.96-30.16 43.52-38.64L43.52-38.64L53.20-40.72L53.20-40.72Q53.76-36.08 54.00-31.68L54.00-31.68L54.00-31.68Q55.20-33.28 56.72-34.84L56.72-34.84L56.72-34.84Q58.24-36.40 61.52-38.36L61.52-38.36L61.52-38.36Q64.80-40.32 68.44-40.32L68.44-40.32L68.44-40.32Q72.08-40.32 74.56-37.48L74.56-37.48L74.56-37.48Q77.04-34.64 77.04-29.76L77.04-29.76L76.56-20.80L77.44-1.60L66.64 0.40L67.60-20.24" fill="#ffffff" stroke="none" stroke-width="none" transform="translate(-71.79998779296875,20.6770654296875)" style="fill: rgb(255, 255, 255);"></path></g><g class="path" style="transform: matrix(1, 0, 0, 1, 0, 0); transform-origin: 31.48px -9.88294px; animation: 1s linear -0.11s infinite normal forwards running bounce-b2f9df74-c404-4ae3-999e-00896c59517a;"><path d="M120.32-5.28L111.20 0.80L96.16-21.36L96.16-20.80L97.04-2L86.24 0L87.20-19.44L86.24-59.92L97.20-61.92L96.16-23.28L112.16-40.80L119.68-35.68L105.68-22.56L120.32-5.28" fill="#ffffff" stroke="none" stroke-width="none" transform="translate(-71.79998779296875,20.6770654296875)" style="fill: rgb(255, 255, 255);"></path></g><g class="path" style="transform: matrix(1, 0, 0, 1, 0, 0); transform-origin: 64.28px 0.317064px; animation: 1s linear 0s infinite normal forwards running bounce-b2f9df74-c404-4ae3-999e-00896c59517a;"><path d="M123.92-38.64L123.92-38.64L133.60-40.72L133.60-40.72Q134.32-34.56 134.56-29.04L134.56-29.04L134.56-29.04Q141.84-40.32 148.24-40.32L148.24-40.32L147.36-27.84L147.36-27.84Q142.72-27.84 140.04-27L140.04-27L140.04-27Q137.36-26.16 134.56-23.68L134.56-23.68L134.56-20.80L135.44-2L124.72 0L125.68-19.44L125.68-19.44Q125.36-30.16 123.92-38.64" fill="#ffffff" stroke="none" stroke-width="none" transform="translate(-71.79998779296875,20.6770654296875)" style="fill: rgb(255, 255, 255);"></path></g></g>
</g>
</g>
<style id="bounce-b2f9df74-c404-4ae3-999e-00896c59517a" data-anikit="">@keyframes bounce-b2f9df74-c404-4ae3-999e-00896c59517a
{
  0% {
    animation-timing-function: cubic-bezier(0.1361,0.2514,0.2175,0.8786);
    transform: translate(0,0px) scaleY(1);
  }
  37% {
    animation-timing-function: cubic-bezier(0.7674,0.1844,0.8382,0.7157);
    transform: translate(0,-39.96px) scaleY(1);
  }
  72% {
    animation-timing-function: cubic-bezier(0.1118,0.2149,0.2172,0.941);
    transform: translate(0,0px) scaleY(1);
  }
  87% {
    animation-timing-function: cubic-bezier(0.7494,0.2259,0.8209,0.6963);
    transform: translate(0,19.900000000000002px) scaleY(0.602);
  }
  100% {
    transform: translate(0,0px) scaleY(1);
  }
}</style></svg>